<svg> 


<symbol xmlns="http://www.w3.org/2000/svg" id= 'arrow-up-right' viewBox="0 0 24 24" fill="none" stroke="currentColor" stroke-width="2" stroke-linecap="round" stroke-linejoin="round" class="lucide lucide-arrow-up-right"><path d="M7 7h10v10"/><path d="M7 17 17 7"/></symbol>

<symbol xmlns="http://www.w3.org/2000/svg" id='twitter' viewBox="0 0 24 24" fill="none" stroke="currentColor" stroke-width="2" stroke-linecap="round" stroke-linejoin="round" class="lucide lucide-twitter"><path d="M22 4s-.7 2.1-2 3.4c1.6 10-9.4 17.3-18 11.6 2.2.1 4.4-.6 6-2C3 15.5.5 9.6 3 5c2.2 2.6 5.6 4.1 9 4-.9-4.2 4-6.6 7-3.8 1.1 0 3-1.2 3-1.2z"/></symbol>

<symbol xmlns="http://www.w3.org/2000/svg" id='github' viewBox="0 0 24 24" fill="none" stroke="currentColor" stroke-width="2" stroke-linecap="round" stroke-linejoin="round" class="lucide lucide-github"><path d="M15 22v-4a4.8 4.8 0 0 0-1-3.5c3 0 6-2 6-5.5.08-1.25-.27-2.48-1-3.5.28-1.15.28-2.35 0-3.5 0 0-1 0-3 1.5-2.64-.5-5.36-.5-8 0C6 2 5 2 5 2c-.3 1.15-.3 2.35 0 3.5A5.403 5.403 0 0 0 4 9c0 3.5 3 5.5 6 5.5-.39.49-.68 1.05-.85 1.65-.17.6-.22 1.23-.15 1.85v4"/><path d="M9 18c-4.51 2-5-2-7-2"/></symbol>

<symbol xmlns="http://www.w3.org/2000/svg" id='youtube' viewBox="0 0 24 24" fill="none" stroke="currentColor" stroke-width="2" stroke-linecap="round" stroke-linejoin="round" class="lucide lucide-youtube"><path d="M2.5 17a24.12 24.12 0 0 1 0-10 2 2 0 0 1 1.4-1.4 49.56 49.56 0 0 1 16.2 0A2 2 0 0 1 21.5 7a24.12 24.12 0 0 1 0 10 2 2 0 0 1-1.4 1.4 49.55 49.55 0 0 1-16.2 0A2 2 0 0 1 2.5 17"/><path d="m10 15 5-3-5-3z"/></symbol>

<symbol xmlns="http://www.w3.org/2000/svg" id='book' viewBox="0 0 24 24" fill="none" stroke="currentColor" stroke-width="2" stroke-linecap="round" stroke-linejoin="round" class="lucide lucide-library"><path d="m16 6 4 14"/><path d="M12 6v14"/><path d="M8 8v12"/><path d="M4 4v16"/></symbol>

<symbol xmlns="http://www.w3.org/2000/svg" id='key' viewBox="0 0 24 24" fill="none" stroke="currentColor" stroke-width="2" stroke-linecap="round" stroke-linejoin="round" class="lucide lucide-key"><circle cx="7.5" cy="15.5" r="5.5"/><path d="m21 2-9.6 9.6"/><path d="m15.5 7.5 3 3L22 7l-3-3"/></symbol>

<symbol xmlns="http://www.w3.org/2000/svg" id='linkedin' viewBox="0 0 24 24" fill="none" stroke="currentColor" stroke-width="2" stroke-linecap="round" stroke-linejoin="round" class="lucide lucide-linkedin"><path d="M16 8a6 6 0 0 1 6 6v7h-4v-7a2 2 0 0 0-2-2 2 2 0 0 0-2 2v7h-4v-7a6 6 0 0 1 6-6z"/><rect width="4" height="12" x="2" y="9"/><circle cx="4" cy="4" r="2"/></symbol>

<symbol xmlns="http://www.w3.org/2000/svg" id='arrow-down' viewBox="0 0 24 24" fill="none" stroke="currentColor" stroke-width="2" stroke-linecap="round" stroke-linejoin="round" class="lucide lucide-arrow-down"><path d="M12 5v14"/><path d="m19 12-7 7-7-7"/></symbol>

<symbol xmlns="http://www.w3.org/2000/svg" id='file-text' viewBox="0 0 24 24" fill="none" stroke="currentColor" stroke-width="2" stroke-linecap="round" stroke-linejoin="round" class="lucide lucide-file-text"><path d="M14.5 2H6a2 2 0 0 0-2 2v16a2 2 0 0 0 2 2h12a2 2 0 0 0 2-2V7.5L14.5 2z"/><polyline points="14 2 14 8 20 8"/><line x1="16" x2="8" y1="13" y2="13"/><line x1="16" x2="8" y1="17" y2="17"/><line x1="10" x2="8" y1="9" y2="9"/></symbol>

<symbol xmlns="http://www.w3.org/2000/svg" id='disc' viewBox="0 0 24 24" fill="none" stroke="currentColor" stroke-width="2" stroke-linecap="round" stroke-linejoin="round" class="lucide lucide-disc-3"><circle cx="12" cy="12" r="10"/><path d="M6 12c0-1.7.7-3.2 1.8-4.2"/><circle cx="12" cy="12" r="2"/><path d="M18 12c0 1.7-.7 3.2-1.8 4.2"/></symbol>

<symbol xmlns="http://www.w3.org/2000/svg" id='circle' viewBox="0 0 24 24" fill="none" stroke="currentColor" stroke-width="2" stroke-linecap="round" stroke-linejoin="round" class="lucide lucide-dot"><circle cx="12.1" cy="12.1" r="1"/></symbol>

</svg>